<?xml version="1.0" encoding="UTF-8" standalone="no"?>
<svg
   height="16px"
   viewBox="0 0 16 16"
   width="16px"
   version="1.1"
   id="svg12644"
   sodipodi:docname="audio-headset-not-available-2-symbolic.svg"
   xml:space="preserve"
   inkscape:version="1.2.2 (b0a8486541, 2022-12-01)"
   xmlns:inkscape="http://www.inkscape.org/namespaces/inkscape"
   xmlns:sodipodi="http://sodipodi.sourceforge.net/DTD/sodipodi-0.dtd"
   xmlns="http://www.w3.org/2000/svg"
   xmlns:svg="http://www.w3.org/2000/svg"><defs
     id="defs12648" /><sodipodi:namedview
     id="namedview12646"
     pagecolor="#ffffff"
     bordercolor="#000000"
     borderopacity="0.25"
     inkscape:showpageshadow="2"
     inkscape:pageopacity="0.0"
     inkscape:pagecheckerboard="0"
     inkscape:deskcolor="#d1d1d1"
     showgrid="true"
     inkscape:zoom="32"
     inkscape:cx="35"
     inkscape:cy="25.71875"
     inkscape:window-width="3840"
     inkscape:window-height="2099"
     inkscape:window-x="0"
     inkscape:window-y="0"
     inkscape:window-maximized="1"
     inkscape:current-layer="g5190"><inkscape:grid
       type="xygrid"
       id="grid13502"
       spacingx="1.3877788e-16"
       spacingy="1.3877788e-16" /></sodipodi:namedview><g
     fill="#2e3436"
     id="g5190"
     transform="translate(52.21875,19.46875)"
     style="fill:#747879;fill-opacity:1"><path
       d="m -42.167969,-10.152343 c -0.265625,0 -0.519531,0.105469 -0.707031,0.292969 -0.390625,0.390625 -0.390625,1.023437 0,1.414062 l 1.292969,1.292969 -1.292969,1.292969 c -0.390625,0.390625 -0.390625,1.023437 0,1.414062 0.390625,0.390625 1.023437,0.390625 1.414062,0 l 1.292969,-1.292969 1.292969,1.292969 c 0.390625,0.390625 1.023437,0.390625 1.414062,0 0.390625,-0.390625 0.390625,-1.023437 0,-1.414062 l -1.292969,-1.292969 1.292969,-1.292969 c 0.390625,-0.390625 0.390625,-1.023437 0,-1.414062 -0.1875,-0.1875 -0.441406,-0.292969 -0.707031,-0.292969 -0.265625,0 -0.519531,0.105469 -0.707031,0.292969 l -1.292969,1.292969 -1.292969,-1.292969 c -0.1875,-0.1875 -0.441406,-0.292969 -0.707031,-0.292969 z m 0,0"
       id="path2700"
       inkscape:label="no - escuro"
       style="fill:#747879;fill-opacity:1;stroke-width:1.00157;stroke-dasharray:none" /><path
       id="path12642"
       style="stroke-width:1.0015748;stroke-dasharray:none"
       inkscape:label="headset"
       fill-opacity="0.34902"
       d="M 8 0 C 6.7695322 0 5.5624989 0.32421961 4.5 0.9375 C 2.3359402 2.1874988 1 4.5000025 1 7 L 1 10 C 1 11.999998 3 12 3 12 L 4 12 C 4.5546874 12 5 11.554687 5 11 L 5 8 C 5 7.4453126 4.5546874 7 4 7 L 3 7 C 3 5.2148458 3.9531265 3.5624989 5.5 2.6679688 C 7.0468735 1.7773446 8.9531265 1.7773446 10.5 2.6679688 C 12.046873 3.5624989 13 5.2148458 13 7 L 12 7 C 11.445313 7 11 7.4453126 11 8 L 11 9.15625 C 11.038301 9.1873967 11.07618 9.2209098 11.111328 9.2558594 C 11.525498 9.478295 11.939346 10.586964 12.353516 9.8925781 C 12.900172 9.2232093 13.759269 8.4956433 14.669922 8.9511719 C 14.793888 9.0019199 14.902733 9.0688944 15 9.1464844 L 15 7 C 15 4.5000025 13.66406 2.1874988 11.5 0.9375 C 10.437501 0.32421961 9.2304678 0 8 0 z M 15 11.513672 C 14.960963 11.546828 14.922231 11.580065 14.878906 11.609375 C 14.291432 12.040377 13.987088 12.471342 14.757812 12.902344 C 14.802286 12.93265 14.845388 12.965705 14.886719 13 C 14.959348 12.691397 15 12.357912 15 12 L 15 11.513672 z M 7 14 C 6.4492196 14 6 14.44922 6 15 C 6 15.55078 6.4492196 16 7 16 L 11 16 C 11 16 11.957032 16.01172 12.949219 15.519531 C 12.986999 15.500567 13.024567 15.478025 13.0625 15.457031 C 12.889566 15.332296 12.736984 15.180518 12.617188 15.003906 C 12.186186 14.213269 11.75522 14.607741 11.324219 15.164062 C 10.708167 16.056633 9.2015342 16.018912 8.7285156 15.011719 C 8.5290951 14.672539 8.5064208 14.327735 8.59375 14 L 7 14 z "
       transform="translate(-52.21875,-19.46875)" /></g></svg>
